<svg xmlns="http://www.w3.org/2000/svg" width="512" height="512" viewBox="0 0 512 512" role="img" aria-label="bokabikun">
  <defs>
    <linearGradient id="appGradient" x1="0" y1="0" x2="1" y2="1">
      <stop offset="0%" stop-color="#34d399"/>
      <stop offset="100%" stop-color="#38bdf8"/>
    </linearGradient>
  </defs>
  <path d="M256 120c-77 0-140 63-140 140v112c0 22 18 40 40 40 16 0 30-9 36-22 6 13 20 22 36 22 17 0 31-9 37-22 6 13 20 22 36 22 16 0 30-9 36-22 6 13 20 22 36 22 22 0 40-18 40-40V260c0-77-63-140-140-140z" fill="url(#appGradient)"/>
  <circle cx="214" cy="220" r="18" fill="#ffffff"/>
  <circle cx="298" cy="220" r="18" fill="#ffffff"/>
  <path d="M210 270c24 18 68 18 92 0" fill="none" stroke="#ffffff" stroke-width="14" stroke-linecap="round"/>
</svg>
